<?xml version="1.0" encoding="iso-8859-1"?>
<!-- Generator: Adobe Illustrator 19.0.0, SVG Export Plug-In . SVG Version: 6.00 Build 0)  -->
<svg version="1.1" id="Capa_1" xmlns="http://www.w3.org/2000/svg" xmlns:xlink="http://www.w3.org/1999/xlink" x="0px" y="0px"
	 viewBox="0 0 468.293 468.293" style="enable-background:new 0 0 468.293 468.293;" xml:space="preserve">
<path style="fill:#DC8744;" d="M343.954,468.293H129.405c-15.084,0-28.01-10.784-30.714-25.624L57.545,216.83h358.268
	l-41.146,225.839C371.964,457.508,359.038,468.293,343.954,468.293z"/>
<path style="fill:#64798A;" d="M412.519,256.253c-3.4,7.952-9.566,14.348-16.885,18.958
	c-33.711,21.092-165.446,91.108-312.336,2.537c-9.105-5.532-16.193-13.716-20.342-23.454c-6.224-14.58-13.312-37.457-9.278-58.779
	c1.901,11.812,5.763,22.705,9.278,31.002c4.149,9.796,11.237,17.98,20.342,23.454c146.891,88.571,278.625,18.613,312.336-2.537
	c7.319-4.551,13.485-10.949,16.885-18.9c0.288-0.692,0.577-1.325,0.807-2.017C416.322,235.218,417.187,245.418,412.519,256.253z"/>
<path style="fill:#FCD462;" d="M157.915,0c0,0,94.41,3.013,143.624,59.258c0,0,63.275,6.026,68.297,61.266
	c0,0,30.131,7.47,25.109,56.966c0,0,30.759,25.592,17.59,56.213c-3.411,7.932-9.557,14.327-16.875,18.91
	c-33.73,21.127-165.471,91.114-312.371,2.532c-9.086-5.479-16.202-13.684-20.351-23.45c-11.337-26.686-25.766-80.848,30.697-103.136
	c0,0,32.14-51.223,70.306-51.223C163.941,77.336,183.024,51.223,157.915,0z"/>
<g>
	<path style="fill:#F6C358;" d="M163.941,77.336c0,0,66.419,71.977,164.691,43.389C328.632,120.725,217.235,177.781,163.941,77.336z
		"/>
	<path style="fill:#F6C358;" d="M93.636,128.559c0,0,111.71,118.516,234.996,66.955C328.632,195.514,187.402,296.307,93.636,128.559
		z"/>
</g>
<path id="SVGCleanerId_0" style="fill:#F6C358;" d="M236.681,454.953c-5.174,0-9.366-4.195-9.366-9.366v-93.659
	c0-5.171,4.192-9.366,9.366-9.366s9.366,4.195,9.366,9.366v93.659C246.047,450.757,241.855,454.953,236.681,454.953z"/>
<path style="fill:#F6C358;" d="M174.236,454.953c-4.14,0-7.927-2.762-9.043-6.951l-24.976-93.659
	c-1.332-5,1.637-10.134,6.634-11.463c5.006-1.335,10.131,1.64,11.463,6.634l24.976,93.659c1.332,5-1.637,10.134-6.634,11.463
	C175.846,454.849,175.035,454.953,174.236,454.953z"/>
<g>
	<path id="SVGCleanerId_0_1_" style="fill:#F6C358;" d="M236.681,454.953c-5.174,0-9.366-4.195-9.366-9.366v-93.659
		c0-5.171,4.192-9.366,9.366-9.366s9.366,4.195,9.366,9.366v93.659C246.047,450.757,241.855,454.953,236.681,454.953z"/>
</g>
<path style="fill:#F6C358;" d="M299.126,454.953c-0.799,0-1.61-0.098-2.421-0.317c-4.997-1.329-7.966-6.463-6.634-11.463
	l24.976-93.659c1.329-4.994,6.457-8,11.463-6.634c4.997,1.329,7.966,6.463,6.634,11.463l-24.976,93.659
	C307.053,452.19,303.266,454.953,299.126,454.953z"/>
<g>
	<path style="fill:#E56353;" d="M347.816,168.796c-9.999-9.999-26.21-9.999-36.208,0c-9.999-9.999-26.21-9.999-36.208,0
		c-9.999,9.998-9.999,26.21,0,36.208l36.208,36.208l36.208-36.208C357.815,195.005,357.815,178.795,347.816,168.796z"/>
	<path style="fill:#E56353;" d="M262.544,52.928c-7.142-7.142-18.721-7.142-25.863,0c-7.142-7.142-18.721-7.142-25.863,0
		c-7.142,7.142-7.142,18.721,0,25.863l25.863,25.863l25.863-25.863C269.686,71.649,269.686,60.07,262.544,52.928z"/>
</g>
<g>
</g>
<g>
</g>
<g>
</g>
<g>
</g>
<g>
</g>
<g>
</g>
<g>
</g>
<g>
</g>
<g>
</g>
<g>
</g>
<g>
</g>
<g>
</g>
<g>
</g>
<g>
</g>
<g>
</g>
</svg>
