<svg id="Capa_1" data-name="Capa 1" xmlns="http://www.w3.org/2000/svg" viewBox="0 0 55 50.98"><defs><style>.cls-1{fill:#fbd490;}.cls-2{fill:#d8af6f;}.cls-3{fill:#a46f3e;}.cls-4{fill:#c80000;}.cls-5{fill:#fff;}.cls-6{fill:#1e64b4;}</style></defs><path class="cls-1" d="M50.68,14.67A15,15,0,0,0,37.94,2.17a15.41,15.41,0,0,0-6,.3,26.26,26.26,0,0,1-13.06,0,15.37,15.37,0,0,0-6-.3A14.94,14.94,0,0,0,.23,14.51a15.17,15.17,0,0,0,4,13.21,12.2,12.2,0,0,1,3.53,8.46V47.57A5.41,5.41,0,0,0,13.19,53H37.24a5.42,5.42,0,0,0,5.42-5.42v-11a12.32,12.32,0,0,1,3.76-8.69A15.17,15.17,0,0,0,50.68,14.67Z" transform="translate(0 -2.01)"/><path class="cls-2" d="M4.88,18a1,1,0,0,1-.7-1.71l11-11a1,1,0,0,1,1.41,0,1,1,0,0,1,0,1.42l-11,11A1,1,0,0,1,4.88,18Z" transform="translate(0 -2.01)"/><path class="cls-2" d="M7.38,25.51a1,1,0,0,1-.7-1.71l15-15a1,1,0,0,1,1.41,0,1,1,0,0,1,0,1.42l-15,15A1,1,0,0,1,7.38,25.51Z" transform="translate(0 -2.01)"/><path class="cls-2" d="M32.88,51a1,1,0,0,1-.7-1.71l6-6a1,1,0,0,1,1.41,0,1,1,0,0,1,0,1.42l-6,6A1,1,0,0,1,32.88,51Z" transform="translate(0 -2.01)"/><path class="cls-2" d="M23.88,50a1,1,0,0,1-.7-1.71l15-15a1,1,0,0,1,1.41,0,1,1,0,0,1,0,1.42l-15,15A1,1,0,0,1,23.88,50Z" transform="translate(0 -2.01)"/><path class="cls-2" d="M10.38,32.51a1,1,0,0,1-.7-1.71l25-25a1,1,0,0,1,1.41,0,1,1,0,0,1,0,1.42l-25,25A1,1,0,0,1,10.38,32.51Z" transform="translate(0 -2.01)"/><path class="cls-2" d="M10.88,43a1,1,0,0,1-.7-1.71l32-32a1,1,0,0,1,1.41,0,1,1,0,0,1,0,1.42l-32,32A1,1,0,0,1,10.88,43Z" transform="translate(0 -2.01)"/><path class="cls-2" d="M13.88,50a1,1,0,0,1-.7-1.71l32-32a1,1,0,0,1,1.41,0,1,1,0,0,1,0,1.42l-32,32A1,1,0,0,1,13.88,50Z" transform="translate(0 -2.01)"/><path class="cls-3" d="M54.8,14.67A15,15,0,0,0,42.05,2.17a15.27,15.27,0,0,0-4.27,0h.16a15,15,0,0,1,12.74,12.5,15.14,15.14,0,0,1-4.26,13.26,12.32,12.32,0,0,0-3.76,8.7V47.58A5.41,5.41,0,0,1,37.24,53h4.12a5.42,5.42,0,0,0,5.42-5.41V36.63a12.32,12.32,0,0,1,3.76-8.7A15.17,15.17,0,0,0,54.8,14.67Z" transform="translate(0 -2.01)"/><circle class="cls-4" cx="36.24" cy="14.21" r="11.69"/><circle class="cls-5" cx="36.24" cy="14.21" r="7.79"/><circle class="cls-6" cx="36.24" cy="14.21" r="3.9"/></svg>